<?xml version="1.0" encoding="utf-8"?>
<!-- Generator: Adobe Illustrator 16.0.0, SVG Export Plug-In . SVG Version: 6.00 Build 0)  -->
<!DOCTYPE svg PUBLIC "-//W3C//DTD SVG 1.1//EN" "http://www.w3.org/Graphics/SVG/1.1/DTD/svg11.dtd">
<svg version="1.1" id="图层_1" xmlns="http://www.w3.org/2000/svg" xmlns:xlink="http://www.w3.org/1999/xlink" x="0px" y="0px"
	 width="36.438px" height="36.438px" viewBox="0 0 36.438 36.438" enable-background="new 0 0 36.438 36.438" xml:space="preserve">
<g>
	<path fill="#C30D23" d="M11.17,31.19v-2.093H5.924c-0.88,0-1.513-0.193-1.899-0.579c-0.408-0.386-0.612-1.019-0.612-1.899v-8.336
		c0-1.244,0.396-1.867,1.191-1.867c0.793,0,1.19,0.623,1.19,1.867v3.734h24.914v-3.67c0-1.244,0.386-1.867,1.158-1.867
		c0.771,0,1.158,0.623,1.158,1.867v8.271c0,0.881-0.204,1.514-0.611,1.899c-0.387,0.386-1.02,0.579-1.898,0.579h-5.311v2.093h11.233
		V4.635C36.438,2.076,34.363,0,31.803,0H19.314v8.434h9.85c0.514,0,0.9-0.053,1.158-0.16s0.387-0.268,0.387-0.482V6.889
		c0-0.214-0.129-0.363-0.387-0.45c-0.236-0.085-0.623-0.13-1.158-0.13h-7.05c-1.245,0-1.866-0.438-1.866-1.318
		c0-0.901,0.621-1.352,1.866-1.352h8.401c0.879,0,1.512,0.203,1.898,0.611c0.407,0.408,0.611,1.052,0.611,1.932v2.316
		c0,0.881-0.204,1.523-0.611,1.932c-0.387,0.387-1.02,0.579-1.898,0.579H19.314v2.093h12.295c1.201,0,1.803,0.407,1.803,1.223
		c0,0.816-0.602,1.224-1.803,1.224H4.959c-1.202,0-1.803-0.407-1.803-1.224c0-0.815,0.601-1.223,1.803-1.223h12.038v-2.093H5.924
		c-0.88,0-1.513-0.192-1.899-0.579c-0.408-0.408-0.612-1.051-0.612-1.932V6.182c0-0.88,0.204-1.523,0.612-1.932
		c0.386-0.408,1.019-0.611,1.899-0.611h8.208c1.202,0,1.802,0.439,1.802,1.319c0,0.858-0.601,1.288-1.802,1.288H7.276
		c-0.515,0-0.891,0.053-1.127,0.16C5.913,6.492,5.795,6.653,5.795,6.889v0.902c0,0.236,0.118,0.396,0.354,0.482
		c0.236,0.107,0.612,0.16,1.127,0.16h9.72V0H4.636C2.076,0,0,2.076,0,4.635V31.19H11.17z M8.563,17.479h19.28
		c1.244,0,1.867,0.451,1.867,1.352c0,0.881-0.623,1.32-1.867,1.32H8.563c-1.222,0-1.834-0.439-1.834-1.32
		C6.729,17.93,7.341,17.479,8.563,17.479z"/>
	<path fill="#C30D23" d="M30.322,26.266c0.258-0.193,0.387-0.482,0.387-0.869V24.56H5.795v0.837c0,0.408,0.118,0.697,0.354,0.869
		c0.236,0.193,0.612,0.289,1.127,0.289h21.887C29.677,26.555,30.064,26.459,30.322,26.266z"/>
	<path fill="#C30D23" d="M0.329,33.508c0.68,1.715,2.35,2.93,4.307,2.93h27.167c1.956,0,3.627-1.215,4.307-2.93H0.329z"/>
	<rect x="13.488" y="29.098" fill="#C30D23" width="9.27" height="2.093"/>
</g>
</svg>
