<?xml version="1.0" encoding="utf-8"?>
<!-- Generator: Adobe Illustrator 16.0.0, SVG Export Plug-In . SVG Version: 6.00 Build 0)  -->
<!DOCTYPE svg PUBLIC "-//W3C//DTD SVG 1.1//EN" "http://www.w3.org/Graphics/SVG/1.1/DTD/svg11.dtd">
<svg version="1.1" id="图层_1" xmlns="http://www.w3.org/2000/svg" xmlns:xlink="http://www.w3.org/1999/xlink" x="0px" y="0px"
	 width="151.623px" height="138.354px" viewBox="0 0 151.623 138.354" enable-background="new 0 0 151.623 138.354"
	 xml:space="preserve">
<g>
	<polygon fill="#0097F4" points="107.179,124.409 44.761,124.409 13.552,70.354 44.761,16.298 75.97,16.298 75.97,18.432 
		45.993,18.432 16.017,70.354 45.993,122.274 105.946,122.274 135.924,70.354 105.946,18.432 86.646,18.432 77.691,27.005 
		63.153,26.886 63.171,24.751 76.842,24.863 85.788,16.298 107.179,16.298 138.388,70.354 	"/>
	<polygon fill="#0097F4" points="110.95,130.941 74.62,130.941 74.62,130.088 110.458,130.088 144.945,70.354 110.458,10.619 
		96.208,10.619 96.208,9.766 110.95,9.766 145.931,70.354 	"/>
	<polygon fill="#0097F4" points="77.249,136.014 66.36,135.567 60.796,130.941 40.989,130.941 6.009,70.354 40.989,9.765 
		82.127,9.765 86.796,1.601 97.241,1.824 97.224,2.678 87.284,2.465 82.622,10.619 41.482,10.619 6.995,70.354 41.482,130.088 
		61.104,130.088 66.685,134.726 77.284,135.161 	"/>
	<polygon fill="#0097F4" points="103.211,117.535 48.729,117.535 48.705,117.492 21.514,70.396 21.661,70.311 48.828,117.364 
		103.112,117.364 130.254,70.354 103.112,23.342 88.011,23.342 88.011,23.171 103.211,23.171 103.235,23.214 130.451,70.354 
		130.427,70.396 	"/>
	<rect x="52.368" y="14.644" fill="#0097F4" width="17.164" height="5.187"/>
	<rect x="81.478" y="120.748" fill="#0097F4" width="17.164" height="5.188"/>
	<path fill="#0097F4" d="M18.285,70.354c0,1.839-1.491,3.33-3.33,3.33s-3.33-1.491-3.33-3.33c0-1.84,1.491-3.33,3.33-3.33
		S18.285,68.514,18.285,70.354"/>
	<path fill="#0097F4" d="M14.955,74.11c-2.071,0-3.757-1.686-3.757-3.757c0-2.072,1.686-3.758,3.757-3.758s3.757,1.686,3.757,3.758
		C18.712,72.425,17.026,74.11,14.955,74.11 M14.955,67.45c-1.601,0-2.903,1.302-2.903,2.903c0,1.601,1.303,2.903,2.903,2.903
		s2.903-1.303,2.903-2.903C17.858,68.752,16.556,67.45,14.955,67.45"/>
	<path fill="#0097F4" d="M140.145,70.354c0,1.839-1.491,3.33-3.33,3.33s-3.33-1.491-3.33-3.33c0-1.84,1.491-3.33,3.33-3.33
		S140.145,68.514,140.145,70.354"/>
	<path fill="#0097F4" d="M136.814,74.11c-2.071,0-3.757-1.686-3.757-3.757c0-2.072,1.686-3.758,3.757-3.758s3.757,1.686,3.757,3.758
		C140.571,72.425,138.886,74.11,136.814,74.11 M136.814,67.45c-1.601,0-2.903,1.302-2.903,2.903c0,1.601,1.303,2.903,2.903,2.903
		s2.903-1.303,2.903-2.903C139.718,68.752,138.415,67.45,136.814,67.45"/>
	<path fill="#0097F4" d="M60.95,28.618c-1.619,0-2.937-1.317-2.937-2.937c0-1.62,1.317-2.938,2.937-2.938s2.938,1.317,2.938,2.938
		C63.888,27.301,62.569,28.618,60.95,28.618 M60.95,23.769c-1.055,0-1.912,0.858-1.912,1.913s0.857,1.912,1.912,1.912
		s1.913-0.857,1.913-1.912S62.005,23.769,60.95,23.769"/>
	<path fill="#0097F4" d="M79.043,138.354c-1.168,0-2.118-0.95-2.118-2.118s0.95-2.118,2.118-2.118s2.118,0.95,2.118,2.118
		S80.211,138.354,79.043,138.354 M79.043,134.801c-0.791,0-1.435,0.644-1.435,1.435s0.644,1.435,1.435,1.435
		c0.792,0,1.435-0.644,1.435-1.435S79.835,134.801,79.043,134.801"/>
	<path fill="#0097F4" d="M99.095,4.236c-1.168,0-2.119-0.95-2.119-2.118S97.927,0,99.095,0s2.117,0.95,2.117,2.118
		S100.263,4.236,99.095,4.236 M99.095,0.684c-0.792,0-1.436,0.644-1.436,1.435s0.644,1.435,1.436,1.435
		c0.791,0,1.435-0.644,1.435-1.435S99.886,0.684,99.095,0.684"/>
	<rect x="66.235" y="5.923" fill="#0097F4" width="13.577" height="0.341"/>
	<rect x="70.078" y="2.289" fill="#0097F4" width="13.577" height="0.342"/>
	<path fill="#0097F4" d="M70.078,2.46c0,0.646-0.524,1.17-1.171,1.17c-0.646,0-1.17-0.523-1.17-1.17s0.524-1.171,1.17-1.171
		C69.554,1.289,70.078,1.813,70.078,2.46"/>
	<path fill="#0097F4" d="M80.551,6.094c0,0.646-0.524,1.17-1.171,1.17s-1.17-0.524-1.17-1.17c0-0.646,0.523-1.171,1.17-1.171
		S80.551,5.447,80.551,6.094"/>
	<polygon fill="#0097F4" points="5.438,80.301 0,70.531 5.444,61.019 6.926,61.867 1.961,70.542 6.931,79.47 	"/>
	<polygon fill="#0097F4" points="146.185,80.301 144.692,79.47 149.662,70.542 144.697,61.867 146.179,61.019 151.623,70.531 	"/>
</g>
</svg>
