<?xml version="1.0" encoding="utf-8"?>
<!-- Generator: Adobe Illustrator 16.0.0, SVG Export Plug-In . SVG Version: 6.00 Build 0)  -->
<!DOCTYPE svg PUBLIC "-//W3C//DTD SVG 1.1//EN" "http://www.w3.org/Graphics/SVG/1.1/DTD/svg11.dtd">
<svg version="1.1" id="图层_1" xmlns="http://www.w3.org/2000/svg" xmlns:xlink="http://www.w3.org/1999/xlink" x="0px" y="0px"
	 width="213.214px" height="213.01px" viewBox="0 0 213.214 213.01" enable-background="new 0 0 213.214 213.01"
	 xml:space="preserve">
<g opacity="0.7">
	<g>
		<g>
			<g>
				<g>
					<path fill="#0071BC" d="M60.609,194.818c5.008,2.623,10.24,4.82,15.621,6.556c3.695,3.617,7.994,6.564,12.629,8.652
						c40.334,6.935,84.63-12.871,106.349-47.561c21.679-34.714,20.098-83.211-3.796-116.439c1.566,4.018,2.53,8.305,2.846,12.667
						c13.582,24.623,16.095,55.367,6.698,81.87c-3.631,3.728-7.963,6.851-12.728,9.213c-18.801,35.859-64.264,56.374-103.59,46.734
						c-39.313-9.695-70.086-48.95-70.113-89.44c0.481,0,0.971,0,1.466,0c0.041,49.271,48.835,94.278,97.946,90.342
						c-3.843-2.505-7.377-5.573-10.465-9.09c-41.041-1.623-78.127-40.179-78.156-81.249c0.612,0,1.23,0,1.856,0
						c0.019,32.315,22.366,63.993,52.805,74.85c-1.81-4.396-3.052-9.078-3.683-13.882c-22.408-11.16-37.752-35.935-37.766-60.968
						c0.725,0,1.456,0,2.189,0c0.014,24.521,15.261,48.765,37.356,59.401c22.108,10.609,50.565,7.369,69.722-7.937
						c5.425,1.852,11.078,2.867,16.684,2.99c10.216-10.857,17.306-24.705,20.146-39.342c4.748-2.86,9-6.437,12.52-10.546
						c1.48-29.634-12.895-59.95-36.781-77.552c-23.899-17.58-57.118-22.311-84.977-12.098c-5.096-1.611-10.409-2.365-15.633-2.209
						C28.566,36.55,7.568,71.66,7.547,107.07c-0.348,0-0.688,0-1.021,0c0.021-36.065,21.611-71.803,53.525-88.604
						c5.194-0.272,10.497,0.367,15.598,1.871c23.938-8.537,51.656-6.53,74.116,5.363c22.451,11.913,39.664,33.73,46.032,58.335
						c1.657-4.202,2.716-8.598,3.119-13.01c-1.695-4.335-3.696-8.552-5.979-12.604c-0.265-5.168-1.421-10.249-3.408-14.929
						c-20.83-27.128-56.089-43.015-90.21-40.641C94.355,1.936,89.238,1.93,84.309,2.834C37.47,12.896,0.061,59.163,0.027,107.07H0
						c0.006-17.497,4.416-35.033,12.691-50.45c-1.985,3.757-3.393,7.836-4.129,12.044c-4.775,12.194-7.25,25.312-7.252,38.406
						c0.155,0,0.318,0,0.494,0c0-2.445,0.088-4.893,0.258-7.335c0.413,2.485,1.053,4.945,1.918,7.335c0.382,0,0.781,0,1.198,0
						c-1.41-3.374-2.368-6.914-2.847-10.49c4.379-43.254,39.26-82.471,81.707-91.867c42.459-9.342,90.604,11.555,112.778,48.948
						c-2.995-3.094-6.504-5.741-10.361-7.812c-25.222-32.84-72.934-47.325-112.155-34.045C35.098,25.134,6.049,65.662,6.023,107.07
						c0.328,0,0.664,0,1.01,0c0.022-39.491,26.512-78.313,63.278-92.734c-2.994,3.287-5.525,7.075-7.469,11.197
						C51.479,31.637,41.394,40.165,33.49,50.357c0.388,0.301,0.783,0.607,1.185,0.919C60.75,17.7,113.219,6.828,150.487,27.282
						c5.329-0.889,10.74-0.852,15.896,0.118c33.42,25.1,48.053,73.597,34.095,112.993c-14.01,39.38-55.951,67.792-97.714,66.198
						c-4.737,2.102-9.806,3.336-14.88,3.613c-4.689-0.851-9.324-2.026-13.859-3.511c-0.053,0.167-0.104,0.323-0.152,0.474
						c43.891,14.33,97.332-4.982,121.924-44.059c24.539-39.111,18.757-95.638-13.193-128.967c3.508,2.435,6.623,5.418,9.201,8.794
						c16.518,21.954,24.091,50.688,20.551,77.934c-3.564,27.241-18.263,53.07-39.86,70.051c-3.921,3.114-8.438,5.501-13.238,7.023
						c-42.188,24.393-102.491,13.575-133.567-23.963c0.132-0.107,0.27-0.223,0.414-0.343c11.924,14.419,27.855,25.582,45.48,31.858
						C67.372,202.65,63.639,199.009,60.609,194.818z M148.694,160.621c-19.487,15.292-48.038,18.653-70.542,8.31
						c0.771,4.781,2.156,9.425,4.098,13.765c27.512,8.849,60.115,0.98,80.56-19.442C158.063,163.005,153.3,162.118,148.694,160.621z
						 M105.93,188.379c3.192,3.423,6.816,6.384,10.732,8.771c36.912-4.14,70.195-33.928,78.383-70.157
						c-3.533,2.925-7.518,5.382-11.796,7.284C172.081,165.672,139.251,188.647,105.93,188.379z M186.312,123.246
						c-0.599,2.94-1.359,5.847-2.274,8.704c4.216-2.031,8.125-4.606,11.567-7.636c0.636-3.286,1.09-6.606,1.362-9.939
						C193.877,117.766,190.277,120.759,186.312,123.246z M198.563,112.529c-0.711,12.025-3.827,23.925-9.083,34.762
						c3.983-2.127,7.642-4.791,10.805-7.896c4.227-12.247,6.018-25.357,5.24-38.291
						C203.789,105.181,201.435,109.042,198.563,112.529z M196.453,86.74c1.704,7.533,2.455,15.288,2.235,23.009
						c2.76-3.573,5-7.503,6.61-11.63c-0.75-8.275-2.551-16.46-5.336-24.288C199.43,78.23,198.24,82.591,196.453,86.74z
						 M150.49,25.577c-25.875-13.912-58.869-14.429-85.166-1.33c2.068-4.062,4.713-7.772,7.807-10.966
						c29.775-10.619,64.957-5.834,90.819,12.35C159.554,24.943,154.999,24.924,150.49,25.577z M91.011,210.723
						c4.291-0.368,8.56-1.413,12.603-3.092c30.089,0.888,60.581-12.747,79.974-35.768c19.378-23.033,27.612-55.403,21.613-84.899
						c2.56,3.551,4.56,7.466,5.898,11.561c2.544,31.259-10.006,63.72-32.911,85.14C155.263,205.069,122.026,215.383,91.011,210.723z
						 M210.792,95.371c-1.46-4.052-3.577-7.904-6.246-11.375c-3.018-12.805-8.595-25.026-16.276-35.706
						c3.792,2.188,7.22,4.939,10.124,8.121C205.014,68.413,209.261,81.75,210.792,95.371z M140.797,7.773
						c-3.646-2.231-7.625-3.902-11.751-4.916c-3.85-0.829-7.742-1.44-11.655-1.839c4.213,0.553,8.355,1.773,12.229,3.589
						C133.398,5.456,137.133,6.511,140.797,7.773z M126.512,3.959c-3.926-1.699-8.1-2.796-12.332-3.218
						c-3.924-0.281-7.862-0.338-11.791-0.184c4.249-0.047,8.517,0.584,12.606,1.836C118.857,2.703,122.707,3.225,126.512,3.959z
						 M100.21,2.256c3.867-0.237,7.748-0.261,11.617-0.067c-4.122-1.128-8.409-1.628-12.655-1.456
						C95.248,1.014,91.34,1.5,87.471,2.208C91.67,1.565,95.986,1.588,100.21,2.256z M9.769,65.718
						c0.864-4.183,2.391-8.22,4.489-11.914c1.966-3.409,4.121-6.709,6.452-9.877c-2.497,3.438-4.456,7.28-5.778,11.34
						C13.02,58.653,11.294,62.144,9.769,65.718z M16.538,52.521c1.444-4.02,3.522-7.8,6.118-11.162
						C37.407,22.526,58.803,8.822,82.082,3.311c-4.131,1.003-8.113,2.664-11.755,4.897C48.152,16.36,28.783,32.314,16.538,52.521z
						 M180.366,31.879C153.001,5.072,109.682-4.931,73.332,7.157c3.707-2.127,7.738-3.662,11.896-4.542
						c37.996-7.762,80.331,7.527,104.601,37.776C187.149,37.094,183.946,34.205,180.366,31.879z M132.183,3.583
						c4.095,1.138,8.024,2.928,11.599,5.271c40.243,15.249,69.036,58.253,67.813,101.271c1.048-4.146,1.453-8.442,1.194-12.684
						C208.813,53.935,174.587,14.083,132.183,3.583z M213.033,100.652c0.133,4.248-0.407,8.529-1.579,12.643
						c-1.698,28.405-15.663,56.102-37.49,74.36c3.797-1.969,7.284-4.507,10.283-7.521
						C204.035,159.093,214.761,129.486,213.033,100.652z M173.216,190.313c3.073-2.458,6.01-5.083,8.79-7.865
						c-3.09,2.92-6.655,5.355-10.509,7.202c-3.046,2.395-6.225,4.622-9.519,6.664C166.014,194.898,169.823,192.873,173.216,190.313z
						 M85.756,209.44c-3.875-1.886-7.489-4.381-10.682-7.371c-3.505-1.164-6.947-2.522-10.305-4.068
						c2.838,3.327,6.162,6.206,9.805,8.509C78.242,207.691,81.979,208.669,85.756,209.44z"/>
				</g>
				<g>
					<path fill="#0071BC" d="M19.666,107.073c0.015,28.533,15.332,56.952,39.166,72.645c23.846,15.672,56.003,18.489,82.214,7.215
						c26.199-11.31,46.232-36.626,51.213-64.725c4.951-28.103-5.188-58.752-25.923-78.354c-5.6-0.071-11.312,0.819-16.822,2.618
						c-20.947-14.811-50.201-17.599-73.569-7.006C52.588,50.077,35.426,73.93,32.775,99.449c-3.627-3.329-6.76-7.102-9.263-11.177
						c7.909-34.875,40.665-63.264,76.31-66.143c3.647-4.18,7.936-7.694,12.62-10.317c46.514,2.875,88.146,45.821,89.578,92.401
						c1.359,46.582-37.627,91.942-83.882,97.602c-4.067,3.382-8.693,5.993-13.563,7.691c-47.533-0.98-92.376-40.511-99.318-87.545
						c-0.262,0.037-0.518,0.076-0.762,0.113c5.639,38.228,35.129,72.494,72.094,83.758c36.977,11.223,80.552-0.818,106.521-29.438
						c2.071-4.694,3.289-9.832,3.586-15.082c18.998-28.076,21.604-66.959,6.52-97.316c-15.113-30.347-47.696-51.72-81.548-53.507
						c-4.713,2.502-9.049,5.89-12.75,9.965C62.566,23.712,29.402,52.98,21.642,88.638c2.829,4.833,6.556,9.253,10.938,13.046
						c-0.13,1.793-0.196,3.59-0.196,5.389c0.715,0,1.436,0,2.165,0c0.011-26.23,15.899-52.207,39.241-64.165
						c23.354-11.938,53.713-9.629,74.995,5.7c5.52-1.908,11.255-2.92,16.899-2.966c20.102,19.348,29.778,49.375,24.755,76.819
						c-5.053,27.438-24.764,52.073-50.429,63.014c-25.677,10.916-57.098,8.058-80.377-7.319
						c-23.268-15.397-38.207-43.184-38.219-71.083C20.824,107.073,20.241,107.073,19.666,107.073z M181.928,176.546
						c-18.837,20.394-46.494,32.684-74.257,32.977c4.084-1.564,7.97-3.779,11.469-6.551c25.985-3.4,50.527-18.027,65.881-39.262
						C184.638,168.157,183.588,172.503,181.928,176.546z"/>
				</g>
				<g>
					<path fill="#0071BC" d="M19.666,107.073c0.015,28.17,14.915,56.237,38.241,72.03c23.34,15.771,54.938,19.151,81.087,8.679
						c-2.006,4.227-4.6,8.106-7.66,11.475c-4.194,1.127-8.469,1.962-12.776,2.506c0.055,0.43,0.104,0.851,0.159,1.264
						c44.258-5.605,82.288-46.658,84.505-91.219c2.152-44.56-31.677-89.139-75.178-99.046c4.244-1.389,8.655-2.128,13.026-2.179
						c49.3,17.637,79.281,79.276,62.733,128.95c0.161,5.104-0.612,10.205-2.272,14.956c-14.436,28.86-43.045,50.587-74.725,56.738
						c-31.682,6.124-66.339-3.338-90.508-24.722c-4.149-2.817-7.768-6.416-10.616-10.537C9.534,156.976,0.342,131.999,0.333,107.07
						c0.079,0,0.169,0,0.267,0c0.023,43.099,29.805,85.345,70.385,99.857c40.598,14.462,90.397,0.618,117.706-32.722
						c27.267-33.377,30.969-84.931,8.748-121.858C175.171,15.45,127.859-5.364,85.611,3.149c4.263-0.28,8.592,0.109,12.782,1.133
						c28.878-2.303,58.806,8.382,79.698,28.453c2.387,4.53,3.983,9.537,4.705,14.709c16.722,21.379,23.852,50.275,18.997,76.979
						c-4.883,26.699-21.751,51.22-44.94,65.323c-23.203,14.083-52.739,17.755-78.682,9.78
						c-25.938-7.995-48.298-27.638-59.566-52.328c0.367-0.17,0.742-0.341,1.122-0.515c11.153,24.44,33.318,43.869,59.009,51.727
						c25.695,7.833,54.934,4.1,77.835-9.939c22.894-14.059,39.461-38.435,44.118-64.894c4.631-26.463-2.65-55.023-19.387-76.036
						c-0.616-5.213-2.106-10.277-4.397-14.88C155.99,12.927,126.194,2.584,97.551,5.123C92.63,3.792,87.494,3.352,82.482,3.832
						C36.723,14.567,0.632,60.069,0.6,107.07c-0.098,0-0.188,0-0.267,0c0.003-16.778,4.065-33.595,11.724-48.525
						c-2.308,3.572-4.061,7.505-5.161,11.611C2.537,81.935,0.284,94.511,0.283,107.07c0.075,0,0.158,0,0.252,0
						c0.002-12.841,2.363-25.702,6.928-37.705c1.17-4.877,3.256-9.532,6.104-13.656C35.02,16.898,83.643-5.756,127.16,2.781
						c43.503,8.596,79.91,47.991,85.05,92.038c5.084,44.055-21.333,90.743-61.712,109.072
						c-40.406,18.274-92.925,7.358-122.696-25.509c2.522,3.421,5.585,6.448,9.037,8.932c24.417,21.217,59.235,30.395,90.939,23.977
						c31.698-6.45,60.184-28.477,74.396-57.532c1.772-4.701,2.677-9.764,2.646-14.849C221.049,88.713,190.292,26.886,140.468,9.55
						c-5.131-0.065-10.339,0.821-15.281,2.605C80.998,3.548,31.584,31.292,15.926,73.499c0.984,5.241,2.928,10.394,5.716,15.14
						C20.332,94.687,19.666,100.881,19.666,107.073c0.575,0,1.158,0,1.748,0c0.027-41.082,35.018-80.155,75.846-84.698
						c-3.031,3.699-5.574,7.891-7.539,12.405c-32.043,7.518-57.318,39.38-57.338,72.293c0.715,0,1.436,0,2.165,0
						c0.021-32.162,24.911-63.264,56.286-70.329c2.23-5.396,5.276-10.363,8.988-14.614c33.698-2.677,68.634,17.283,83.435,47.676
						c14.768,30.408,8.897,70.214-14.018,95.066c-22.943,24.827-62.152,33.854-93.645,21.564
						c-31.476-12.332-54.163-45.56-54.181-79.363C20.824,107.073,20.241,107.073,19.666,107.073z M22.238,86.08
						c-2.249-4.101-3.881-8.474-4.816-12.929c11.428-30.008,39.369-53.56,70.881-59.74c31.518-6.149,66.276,5.133,88.17,28.624
						c21.871,23.511,30.649,58.985,22.272,89.984c-8.41,30.993-33.89,57.186-64.638,66.446c2.957-3.457,5.43-7.416,7.313-11.696
						c26.808-11.723,47.013-38.188,51.252-67.137c4.214-28.957-7.584-60.096-29.928-78.987
						c-22.359-18.872-55.03-25.302-82.874-16.314C52.036,33.347,29.317,57.689,22.238,86.08z"/>
				</g>
			</g>
			<g>
				<g>
					<path fill="#0071BC" d="M209.321,135.375c0.066-0.307,0.12-0.617,0.179-0.923c-2.522,9.065-6.323,17.789-11.179,25.918
						C203.127,152.588,206.885,144.199,209.321,135.375z"/>
					<path fill="#0071BC" d="M58.291,44.242c2.842,0.534,5.66,1.302,8.42,2.288c0.004-0.153,0.006-0.309,0.012-0.462
						c-2.609-0.93-5.273-1.666-7.961-2.191c2.863-2.218,5.854-4.265,8.949-6.124c0.117-0.584,0.242-1.165,0.377-1.742
						c-3.977,2.159-7.747,4.687-11.281,7.521c-3.236-0.51-6.494-0.721-9.72-0.612c-17.528,16.285-27.971,40.227-27.983,64.15
						c0.135,0,0.271,0.003,0.406,0.003c0.014-23.753,10.35-47.52,27.715-63.723c3.027-0.088,6.083,0.107,9.121,0.563
						C44.314,53.719,35.111,67.125,30.081,81.86C35.652,67.223,45.727,54.099,58.291,44.242z"/>
					<path fill="#0071BC" d="M209.533,134.597c0.376-1.413,0.71-2.837,1.022-4.266c-0.274,1.184-0.569,2.361-0.887,3.532
						C209.624,134.109,209.584,134.353,209.533,134.597z"/>
					<path fill="#0071BC" d="M67.171,46.229c0.121-2.982,0.475-5.929,1.072-8.797c-0.179,0.105-0.355,0.214-0.532,0.32
						c-0.543,2.717-0.871,5.5-0.988,8.315C66.873,46.121,67.021,46.173,67.171,46.229z"/>
					<path fill="#0071BC" d="M0.138,109.846c-0.071-0.924-0.121-1.85-0.132-2.776H0c0.003,1.005,0.035,2.011,0.115,3.011
						c0.196,6.949,1.087,13.881,2.629,20.662c-0.201-1.125-0.356-2.26-0.467-3.399C1.031,121.595,0.295,115.743,0.138,109.846z"/>
					<path fill="#0071BC" d="M132.777,202.775c0.182-0.162,0.355-0.336,0.534-0.503c-3.053,0.972-6.148,1.786-9.278,2.438
						C126.978,204.203,129.898,203.562,132.777,202.775z"/>
					<path fill="#0071BC" d="M164.133,80.788c0.22,0.018,0.438,0.042,0.656,0.063c-0.736-1.71-1.553-3.39-2.467-5.023
						c-4.203-7.478-10.144-13.805-17.125-18.812C153.244,63.308,159.821,71.538,164.133,80.788z"/>
					<path fill="#0071BC" d="M65.846,177.429c16.62,9.622,36.909,12.72,55.893,9.302c-0.104-0.075-0.211-0.148-0.315-0.229
						c-1.577,0.317-3.167,0.583-4.772,0.783c-19.352,2.404-38.955-3.854-54.979-15.376c0.129,1.083,0.293,2.155,0.484,3.219
						C63.366,175.929,64.592,176.702,65.846,177.429z"/>
					<path fill="#0071BC" d="M25.785,107.073c0.005-8.555,1.52-17.083,4.296-25.213c-3.063,8.045-4.769,16.547-4.775,25.213
						c0.013,26.544,14.318,52.916,36.345,67.727c-0.186-1.07-0.336-2.146-0.459-3.23C40.432,156.438,25.808,132.451,25.785,107.073z
						"/>
					<path fill="#0071BC" d="M67.152,46.692c-0.147-0.054-0.295-0.109-0.441-0.162c-0.236,7.036,0.842,14.265,3.211,21.168
						c-10.143,9.464-16.439,23.085-17.069,36.942c0.215,0.011,0.431,0.021,0.644,0.03c0.935-20.341,15.225-39.586,34.082-47.173
						c-6.408,2.066-12.357,5.341-17.359,9.925C67.953,60.652,66.929,53.581,67.152,46.692z"/>
					<path fill="#0071BC" d="M68.627,35.719c-0.139,0.568-0.265,1.139-0.384,1.713c7.983-4.721,16.644-8.176,25.577-10.021
						C85.021,28.784,76.455,31.556,68.627,35.719z"/>
					<path fill="#0071BC" d="M94.443,55.303c-2.345,0.553-4.635,1.297-6.865,2.194c15.184-4.893,32.967-2.941,47.018,4.85
						C122.656,55.074,107.949,52.134,94.443,55.303z"/>
					<path fill="#0071BC" d="M145.197,57.016c-4.035-3.154-8.426-5.834-13.1-7.89c-9.027-3.965-19.047-5.635-28.942-5.098
						C117.99,43.708,133.154,48.381,145.197,57.016z"/>
					<path fill="#0071BC" d="M173.106,23.935c-1.689-1.383-3.418-2.71-5.194-3.978c0.459,0.362,0.909,0.734,1.352,1.116
						C170.565,22,171.85,22.949,173.106,23.935z"/>
					<path fill="#0071BC" d="M76.748,51.269c8.093-4.327,17.197-6.739,26.407-7.24c-9.263,0.201-18.394,2.342-26.549,6.677
						c-3.014-1.793-6.182-3.286-9.436-4.477c-0.007,0.154-0.013,0.309-0.019,0.463C70.466,47.908,73.687,49.435,76.748,51.269z"/>
					<path fill="#0071BC" d="M184.978,87.175c-0.392-0.204-0.789-0.396-1.187-0.589c1.571,5.067,2.66,10.256,3.228,15.479
						C186.878,97.062,186.218,92.074,184.978,87.175z"/>
					<path fill="#0071BC" d="M153.612,80.81c-4.41-7.874-11.124-14.086-19.017-18.463c7.658,4.665,14.182,11.108,18.512,18.881
						c3.767-0.354,7.536-0.344,11.241,0c-0.067-0.148-0.147-0.293-0.216-0.44C160.663,80.491,157.137,80.494,153.612,80.81z"/>
					<path fill="#0071BC" d="M62.156,175.128c-0.166-0.109-0.34-0.218-0.506-0.329c0.514,2.973,1.271,5.879,2.28,8.676
						c7.022,3.916,14.611,6.626,22.462,8.22c-7.716-1.815-15.186-4.642-22.095-8.48C63.366,180.603,62.657,177.896,62.156,175.128z"
						/>
					<path fill="#0071BC" d="M0.102,107.07c0-1.374,0.027-2.749,0.08-4.125c0.027,1.378,0.119,2.755,0.277,4.125h0.102
						c-0.209-1.628-0.32-3.267-0.345-4.903c-0.087,1.632-0.142,3.268-0.144,4.903H0.102z"/>
					<path fill="#0071BC" d="M210.914,87.287c-3.932-20.32-13.501-39.596-27.813-54.37c-3.121-3.218-6.467-6.213-9.994-8.981
						C192.395,39.729,205.898,62.749,210.914,87.287z"/>
					<path fill="#0071BC" d="M183.596,85.985c0.412,0.196,0.825,0.392,1.23,0.599c-6.148-23.42-23.607-43.848-45.785-53.566
						c-0.759-0.333-1.525-0.649-2.295-0.956C158.754,41.966,176.186,62.675,183.596,85.985z"/>
					<path fill="#0071BC" d="M136.746,32.061c-6.121-2.755-12.595-4.682-19.307-5.588c-7.906-1.055-15.867-0.662-23.619,0.938
						C108.227,25.166,123.262,26.685,136.746,32.061z"/>
					<path fill="#0071BC" d="M0.215,102.141c0,0.008,0.001,0.017,0.001,0.025c2.021-37.902,26.901-74.082,60.856-91.091
						C27.033,28.037,2.002,64.135,0.215,102.141z"/>
					<path fill="#0071BC" d="M164.989,81.291c6.633,0.689,13.034,2.479,18.802,5.296c-0.062-0.202-0.131-0.4-0.195-0.602
						c-5.779-2.76-12.182-4.497-18.807-5.134C164.853,80.999,164.927,81.143,164.989,81.291z"/>
					<path fill="#0071BC" d="M146.453,8.664c-1.366-0.748-2.771-1.415-4.208-2.002c-1.625-0.577-3.261-1.127-4.913-1.625
						c0.914,0.23,1.816,0.5,2.715,0.793c-1.148-0.392-2.31-0.737-3.486-1.023c-6.67-1.949-13.536-3.237-20.459-3.856
						c1.472,0.199,2.933,0.476,4.378,0.833C129.363,3.024,138.114,5.341,146.453,8.664z"/>
					<path fill="#0071BC" d="M122.502,211.896c0.225-0.041,0.447-0.082,0.672-0.123c-5.053,0.109-10.149-0.682-14.956-2.36
						c39.351-0.633,77.753-26.677,92.899-63c3.019-7.261,5.074-14.893,6.242-22.68c-0.551,3.457-1.274,6.886-2.194,10.261
						c-1.472,2.03-3.137,3.938-4.956,5.708c0.973-2.861,1.816-5.768,2.528-8.708c-0.895,3.155-1.958,6.27-3.178,9.327
						c-2.298,2.146-4.83,4.081-7.549,5.753c0.026,0.139,0.049,0.281,0.073,0.421c2.575-1.59,4.984-3.412,7.181-5.431
						c-1.84,4.502-4.019,8.881-6.501,13.097c0.001,0.743-0.009,1.484-0.047,2.221c2.909-5.086,5.326-10.444,7.258-15.988
						c1.825-1.751,3.501-3.642,4.983-5.656c-13.129,46.536-64.392,80.1-112.296,73.525c-0.075-0.009-0.148-0.02-0.222-0.031
						c4.947,0.814,9.963,1.229,15.005,1.193C112.277,211.149,117.411,211.983,122.502,211.896z"/>
					<path fill="#0071BC" d="M191.716,146.716c0.468,2.678,0.701,5.369,0.69,8.037c0.118-0.196,0.239-0.393,0.357-0.593
						c-0.005-2.547-0.235-5.114-0.68-7.666C191.961,146.57,191.838,146.641,191.716,146.716z"/>
					<path fill="#0071BC" d="M134.064,202.034c-0.188,0.182-0.373,0.367-0.563,0.543c24.404-6.878,46.065-23.646,58.842-45.546
						c0.044-0.757,0.06-1.516,0.063-2.277C179.325,176.652,158.093,194.162,134.064,202.034z"/>
					<path fill="#0071BC" d="M4.331,110.51c0.593,17.275,6.4,34.009,15.796,48.649c-9.824-15.688-15.639-33.73-15.65-52.09H4.271
						c0,0.89,0.013,1.778,0.035,2.666c-1.913,5.663-2.59,11.713-2.029,17.607c0.049,0.218,0.094,0.436,0.144,0.653
						C1.838,122.149,2.476,116.143,4.331,110.51z"/>
					<path fill="#0071BC" d="M92.44,208.231c-29.243-4.82-56.114-23.828-72.313-49.071C36.141,184.732,62.817,204.044,92.44,208.231
						z"/>
					<path fill="#0071BC" d="M46.162,28.413C65.379,13.657,90.4,6.51,114.609,8.282c-18.682-1.46-37.787,2.079-54.273,10.738
						c5.428-7.512,13.295-13.105,21.945-15.654c2.145-0.502,4.304-0.927,6.475-1.285c-0.295,0.033-0.592,0.075-0.887,0.114
						c-1.686,0.302-3.367,0.63-5.039,1.013c0.898-0.25,1.81-0.461,2.725-0.647c-1.182,0.224-2.354,0.5-3.509,0.83
						C75.66,4.91,69.471,7.125,63.533,9.902c5.771-2.686,11.775-4.842,17.967-6.35c-8.633,2.615-16.459,8.265-21.828,15.82
						C28.301,36.19,7.168,71.477,7.148,107.07c0.006,7.237,0.957,14.404,2.729,21.379c-1.605-7.019-2.459-14.196-2.463-21.379
						C7.428,76.914,22.26,46.802,46.162,28.413z"/>
					<path fill="#0071BC" d="M9.877,128.449c5.166,22.562,18.203,43.468,36.547,57.484c10.438,7.961,22.573,13.681,35.354,16.957
						C47.582,192.792,18.654,162.983,9.877,128.449z"/>
					<path fill="#0071BC" d="M145.235,185.143c8.321-4.124,15.995-9.562,22.594-16.076c-0.037,0.002-0.072,0.002-0.109,0.005
						c-6.486,5.977-13.957,10.943-22.011,14.808c0.765-2.126,1.396-4.314,1.87-6.551c4.193-2.447,8.146-5.305,11.831-8.483
						c-0.893-0.094-1.782-0.206-2.672-0.348c-9.985,8.787-21.859,15.188-34.725,17.883c0.114,0.082,0.23,0.16,0.344,0.242
						c8.673-1.63,17.063-4.623,24.689-8.985c-0.49,2.228-1.137,4.403-1.915,6.519c-5.413,2.552-11.085,4.599-16.894,6.117
						c0.51,0.27,1.021,0.532,1.538,0.783c5.112-1.41,10.093-3.311,14.87-5.634c-2.58,6.471-6.467,12.276-11.335,16.85
						c0.251-0.08,0.503-0.155,0.753-0.238C138.879,197.434,142.709,191.615,145.235,185.143z"/>
					<path fill="#0071BC" d="M81.777,202.89c7.811,2.307,15.896,3.589,24.08,3.66c6.129,0.041,12.212-0.602,18.176-1.841
						C110.08,207.115,95.555,206.424,81.777,202.89z"/>
					<path fill="#0071BC" d="M210.914,87.287c2.753,14.232,2.731,28.974-0.358,43.045c0.638-2.734,1.169-5.494,1.566-8.277
						C213.753,110.526,213.256,98.741,210.914,87.287z"/>
					<path fill="#0071BC" d="M123.174,211.773c1.802-0.041,3.6-0.197,5.376-0.467c1.882-0.375,3.755-0.803,5.614-1.299
						c-0.881,0.281-1.774,0.524-2.674,0.741c1.165-0.271,2.317-0.581,3.451-0.951c26.339-7.278,49.29-25.842,63.38-49.428
						C182.04,186.728,153.654,206.1,123.174,211.773z"/>
					<path fill="#0071BC" d="M208.441,113.787c1.191-20.363-3.704-41.183-13.979-58.767c10.058,17.574,14.924,38.284,13.913,58.56
						c-0.618-1.952-1.371-3.87-2.272-5.722c0.082-11.191-1.92-22.374-5.66-32.979c6.056,17.91,6.753,37.678,2.294,56.114
						c2.062-7.275,3.232-14.784,3.355-22.385c0.896,1.871,1.637,3.807,2.244,5.778c-0.18,3.132-0.513,6.25-0.978,9.346
						c0.482-3.036,0.829-6.096,1.032-9.169c1.961,6.48,2.354,13.371,1.108,19.888c0.055-0.197,0.115-0.392,0.169-0.588
						C210.911,127.278,210.473,120.319,208.441,113.787z"/>
					<path fill="#0071BC" d="M88.631,2.058c-1.032,0.129-2.059,0.296-3.076,0.503c0.768-0.146,1.541-0.264,2.314-0.366
						C88.124,2.151,88.378,2.103,88.631,2.058z"/>
					<path fill="#0071BC" d="M127.499,211.51c1.345-0.188,2.677-0.444,3.991-0.762c-0.973,0.222-1.953,0.407-2.94,0.558
						C128.199,211.377,127.85,211.444,127.499,211.51z"/>
					<path fill="#0071BC" d="M122.502,211.896c-2.679,0.478-5.373,0.857-8.077,1.12c4.387-0.198,8.753-0.699,13.074-1.506
						C125.846,211.736,124.177,211.867,122.502,211.896z"/>
					<path fill="#0071BC" d="M2.744,130.743c0.182,1.01,0.4,2.01,0.658,2.997c-0.189-0.763-0.352-1.536-0.496-2.312
						C2.854,131.199,2.797,130.97,2.744,130.743z"/>
					<path fill="#0071BC" d="M2.906,131.428c0.396,1.688,0.822,3.37,1.301,5.037c-0.304-0.896-0.567-1.807-0.805-2.726
						c0.291,1.185,0.631,2.354,1.028,3.501c4.907,16.568,14.528,31.378,27.051,43.422c-14.227-14.644-24.66-33.018-29.061-52.666
						C2.534,129.149,2.697,130.292,2.906,131.428z"/>
					<path fill="#0071BC" d="M31.481,180.663c16.721,17.208,38.675,29.258,62.239,32.15c6.885,0.835,13.822,0.876,20.704,0.203
						C84.324,214.382,53.438,201.778,31.481,180.663z"/>
					<path fill="#0071BC" d="M86.393,191.695c14.022,3.307,28.875,3.24,42.748-0.467c-0.513-0.254-1.021-0.519-1.527-0.791
						C114.094,193.876,99.854,194.432,86.393,191.695z"/>
					<path fill="#0071BC" d="M187.019,102.065c0.689,24.541-11.236,49.448-29.847,66.049c0.902,0.137,1.807,0.242,2.711,0.331
						c11.854-10.378,20.762-24.217,25.025-39.349c3.345,5.332,5.63,11.217,6.736,17.194c0.121-0.07,0.244-0.142,0.366-0.217
						c-1.122-6.116-3.474-12.137-6.938-17.569C187.425,119.863,187.978,110.914,187.019,102.065z"/>
					<path fill="#0071BC" d="M119.567,1.654c-1.388-0.328-2.794-0.579-4.204-0.763c-1.72-0.142-3.441-0.255-5.166-0.314
						c0.93-0.011,1.858,0.018,2.787,0.071c-1.196-0.083-2.396-0.118-3.592-0.094c-6.945-0.178-13.91,0.334-20.762,1.504
						c0.363-0.044,0.726-0.088,1.089-0.124C99.563,0.414,109.641,0.354,119.567,1.654z"/>
					<path fill="#0071BC" d="M125.611,9.722c-2.994-0.568-6.018-0.994-9.057-1.276C119.592,8.739,122.616,9.163,125.611,9.722z"/>
					<path fill="#0071BC" d="M127.613,190.437c0.208-0.055,0.416-0.109,0.625-0.164c-2.029-1.075-3.992-2.298-5.881-3.65
						c-0.205,0.04-0.411,0.071-0.619,0.108C123.623,188.1,125.585,189.342,127.613,190.437z"/>
					<path fill="#0071BC" d="M139.082,162.073c26.317-15.56,37.721-52.751,25.907-80.782c-0.213-0.022-0.427-0.043-0.641-0.063
						c1.491,3.269,2.701,6.656,3.594,10.129c9.312,36.473-23.03,78.591-60.67,79.009c-2.632-4.303-4.702-8.998-6.181-13.907
						c-0.122-0.011-0.247-0.018-0.369-0.026c1.44,4.913,3.476,9.616,6.072,13.938c-5.301,0.014-10.605-0.643-15.741-1.948
						c-1.401-4.694-2.197-9.608-2.401-14.584c-0.115-0.041-0.235-0.072-0.352-0.116c0.168,4.969,0.926,9.883,2.289,14.584
						c-26.614-6.988-47.242-33.718-47.261-61.233h-0.564c0.008,17.03,7.24,34.078,19.479,45.918
						c-1.395,6.144-1.732,12.461-1.053,18.578c0.159,0.116,0.321,0.226,0.48,0.341c-0.727-6.112-0.428-12.433,0.92-18.585
						c11.826,11.249,28.225,17.729,44.547,17.608c3.768,6.104,8.666,11.421,14.284,15.569c0.198-0.04,0.394-0.08,0.591-0.122
						c-5.646-4.106-10.584-9.379-14.395-15.454c10.844-0.169,21.663-3.174,31.045-8.611c5.677,3.103,11.834,5.197,18.074,6.183
						c0.146-0.126,0.289-0.256,0.434-0.384C150.934,167.174,144.771,165.127,139.082,162.073z"/>
					<path fill="#0071BC" d="M181.988,150.773c-3.576,6.166-7.929,11.892-12.897,17.004c5.104-4.92,9.561-10.48,13.152-16.634
						c3.324-1.137,6.502-2.63,9.473-4.427c-0.025-0.142-0.044-0.283-0.071-0.426C188.619,148.118,185.378,149.631,181.988,150.773z"
						/>
					<path fill="#0071BC" d="M159.883,168.445c-0.155,0.138-0.316,0.266-0.473,0.4c2.776,0.298,5.558,0.38,8.31,0.227
						c0.167-0.156,0.331-0.31,0.496-0.464C165.458,168.784,162.669,168.722,159.883,168.445z"/>
					<path fill="#0071BC" d="M167.912,19.958c-0.994-0.788-2.026-1.524-3.089-2.213c0.819,0.545,1.618,1.122,2.396,1.725
						C167.449,19.633,167.683,19.793,167.912,19.958z"/>
					<path fill="#0071BC" d="M168.704,20.679c-0.486-0.415-0.981-0.817-1.484-1.209c-1.57-1.1-3.163-2.17-4.797-3.176
						c0.818,0.453,1.616,0.941,2.4,1.451c-1.002-0.669-2.03-1.295-3.088-1.868c-5.955-3.599-12.271-6.604-18.815-8.976
						c1.468,0.609,2.901,1.303,4.295,2.079C154.799,12.068,162.032,15.989,168.704,20.679z"/>
					<path fill="#0071BC" d="M116.102,0.952c-1.037-0.142-2.077-0.243-3.117-0.304c0.794,0.057,1.588,0.141,2.379,0.244
						C115.609,0.912,115.855,0.929,116.102,0.952z"/>
					<path fill="#0071BC" d="M158.397,22.126c-9.393-5.718-19.81-9.706-30.622-11.966c1.463,0.313,2.919,0.652,4.364,1.036
						c23.593,6.291,44.656,21.961,57.99,42.468C182.038,40.919,171.205,29.942,158.397,22.126z"/>
					<path fill="#0071BC" d="M190.13,53.665c4.226,6.654,7.694,13.794,10.313,21.215c-0.687-2.028-1.432-4.036-2.256-6.012
						C195.976,63.571,193.265,58.486,190.13,53.665z"/>
					<path fill="#0071BC" d="M179.836,35.542c-5.988-6.129-12.758-11.505-20.079-15.956c-3.449-4.323-7.752-7.938-12.542-10.607
						c-0.255-0.104-0.508-0.213-0.762-0.315c4.819,2.634,9.153,6.221,12.639,10.524c-7.356-4.391-15.276-7.855-23.494-10.284
						c-4.52-3.354-9.701-5.778-15.118-7.119c-0.305-0.042-0.607-0.091-0.912-0.131c5.468,1.294,10.712,3.689,15.288,7.034
						C126.617,6.323,118.077,5,109.511,4.759c-6.278-2.507-13.138-3.471-19.791-2.824c-0.321,0.049-0.644,0.094-0.964,0.147
						c6.893-0.75,14.025,0.232,20.522,2.874c30.714,0.809,61.002,16.537,79.339,41.188c2.111,2.846,4.056,5.814,5.846,8.876
						c-3.923-6.854-8.623-13.238-14.087-18.922c-2.542-5.773-6.385-10.946-11.112-15.025c-0.187-0.133-0.372-0.264-0.56-0.395
						C173.421,24.71,177.268,29.825,179.836,35.542z"/>
				</g>
				<g>
					<path fill="#0071BC" d="M170.176,83.87c-7.483-20.464-25.685-36.936-46.795-42.342c-4.735,4.503-8.753,9.91-11.879,15.89
						c0.123,0.014,0.243,0.03,0.365,0.046c3.059-5.754,6.953-10.966,11.516-15.339c23.996,6.205,43.919,27.131,48.938,51.403
						c4.989,24.278-5.029,51.377-24.614,66.569c-19.601,15.169-48.347,18.103-70.606,7.202
						c-22.25-10.925-37.535-35.442-37.55-60.227h-0.577c0.006,12.896,3.813,25.824,10.797,36.664
						c-10.574,0.129-20.92-2.77-29.262-8.184c-3.031-9.165-4.588-18.83-4.591-28.48c-0.127,0-0.256-0.003-0.384-0.003
						c0.002,9.763,1.588,19.534,4.669,28.797c8.474,5.569,19.055,8.511,29.847,8.298c11.955,18.217,33.437,30.098,55.222,30.548
						c21.784,0.423,43.727-10.586,56.402-28.312C174.331,128.668,177.636,104.343,170.176,83.87z"/>
				</g>
				<g>
					<path fill="#0071BC" d="M0.725,107.07c0.025,43.567,30.568,86.216,71.807,100.268c41.258,14,91.467-1.189,118.047-35.71
						c26.535-34.554,28.319-86.979,4.192-123.257C170.599,12.126,121.539-6.442,79.427,4.722c9.013-1.018,18.485,1.031,26.591,5.685
						c49.476-0.276,96.003,44.849,97.248,94.311c-4.698,8.526-12.258,15.719-21.317,20.342
						c-8.657,36.136-47.474,63.238-84.379,58.923c-36.897-4.374-68.357-39.754-68.382-76.909c0.16,0,0.323,0,0.486,0
						c0.021,36.947,31.34,72.124,68.037,76.434c36.704,4.253,75.271-22.773,83.802-58.725c9.092-4.592,16.693-11.759,21.443-20.271
						c-1.348-49.303-47.831-94.182-97.149-93.799C97.545,5.916,87.849,3.824,78.654,4.93C34.631,17.021,0.754,61.417,0.725,107.07
						H0.642C0.687,52.208,51.767,1.13,106.627,1.088c54.861,0.043,105.941,51.124,105.981,105.986
						c-0.042,54.861-51.122,105.94-105.983,105.984C51.764,213.014,0.684,161.933,0.642,107.07H0.725z"/>
					<path fill="#0071BC" d="M38.973,107.073c0.012,23.532,13.533,46.903,33.928,58.646c20.409,11.723,47.41,11.652,67.756-0.176
						c20.335-11.849,33.73-35.292,33.622-58.824c-0.136-23.534-13.777-46.834-34.235-58.471c9.317-5.002,19.828-7.231,29.729-6.294
						c30.586,29.702,35.378,83.358,10.542,118.012c-24.887,34.616-77.258,47.244-115.181,27.769
						c-9.667,1.957-19.759,0.736-28.203-3.392c-21.478-19.39-34.353-48.337-34.364-77.273H2.41
						c0.012,29.057,12.976,58.124,34.588,77.544c8.406,4.182,18.479,5.457,28.138,3.555c38.128,19.478,90.695,6.68,115.611-28.14
						c24.862-34.856,19.932-88.732-10.851-118.491c-10.089-1.017-20.829,1.276-30.299,6.461
						c-20.379-11.362-47.094-11.071-67.222,0.73C52.258,60.552,38.984,83.737,38.973,107.073c0.193,0,0.384,0,0.577,0
						c0.03-34.723,32.355-67.049,67.077-67.076c34.721,0.029,67.047,32.355,67.075,67.076
						c-0.031,34.723-32.356,67.048-67.077,67.075c-34.721-0.029-67.047-32.354-67.075-67.075
						C39.356,107.073,39.166,107.073,38.973,107.073z"/>
				</g>
			</g>
		</g>
	</g>
</g>
</svg>
