<svg id="图层_1" data-name="图层 1" xmlns="http://www.w3.org/2000/svg" viewBox="0 0 500 500"><defs><style>.cls-1{fill:#796fea;}.cls-2{fill:#f3f5ff;}</style></defs><title>头像</title><rect class="cls-1" width="500" height="500"/><path class="cls-2" d="M370,332.32a122.3,122.3,0,0,0-27.92-39.1,130.77,130.77,0,0,0-41.39-26.37l-.41-.16c26.82-18.3,42-50.91,33-85.94-7.4-29-31.52-51.7-62.2-58.6-56.61-12.73-107,27.44-107,78.77,0,27.06,14,51,35.6,65.8-.14.07-.28.1-.41.16a129.59,129.59,0,0,0-41.39,26.38A122.65,122.65,0,0,0,130,332.36a115.8,115.8,0,0,0-10.21,45.18,2.69,2.69,0,0,0,2.77,2.68h20.78a2.7,2.7,0,0,0,2.77-2.55c.69-25.26,11.43-48.91,30.41-66.84,19.63-18.56,45.71-28.76,73.49-28.76s53.86,10.2,73.49,28.76c19,17.93,29.72,41.58,30.41,66.84a2.68,2.68,0,0,0,2.77,2.55h20.78a2.69,2.69,0,0,0,2.77-2.68A116.16,116.16,0,0,0,370,332.32ZM250,257.18a60.93,60.93,0,0,1-42.11-16.49,54.06,54.06,0,0,1,0-79.57,62,62,0,0,1,84.23,0,54.08,54.08,0,0,1,0,79.57A61,61,0,0,1,250,257.18Zm0,0"/></svg>